<svg id="Layer_1" data-name="Layer 1" xmlns="http://www.w3.org/2000/svg" viewBox="0 0 580.96 219.86"><defs><style>.cls-1{fill:#ff724f;}.cls-2{font-size:125.86px;font-family:AlantaRosery, Alanta Rosery;}.cls-2,.cls-6{fill:#21212f;}.cls-3{letter-spacing:-0.05em;}.cls-4{letter-spacing:-0.02em;}.cls-5{letter-spacing:0em;}</style></defs><path class="cls-1" d="M789.87,423.85H796a29.21,29.21,0,0,1-4,12.55,21.62,21.62,0,0,1-8.89,8.07,29.83,29.83,0,0,1-13.56,2.84,25.14,25.14,0,0,1-14.28-4.05,26.52,26.52,0,0,1-9.43-11.36,40.42,40.42,0,0,1-3.36-17v-8.94a40.5,40.5,0,0,1,3.36-17.05,26.42,26.42,0,0,1,9.53-11.38,25.82,25.82,0,0,1,14.57-4.08,29.29,29.29,0,0,1,13.27,2.79,21.47,21.47,0,0,1,8.79,8.05,29.57,29.57,0,0,1,4,12.68h-6.08q-1.08-8.7-5.88-13.49t-14.08-4.79A19.42,19.42,0,0,0,758.45,382a21.5,21.5,0,0,0-7.36,9.49,36.66,36.66,0,0,0-2.57,14.3v9a37.66,37.66,0,0,0,2.47,14,21.91,21.91,0,0,0,7.17,9.68,18.4,18.4,0,0,0,11.36,3.51,24.41,24.41,0,0,0,10.59-2,14.92,14.92,0,0,0,6.6-6.1A27,27,0,0,0,789.87,423.85Z" transform="translate(-545.19 -370.45)"/><path class="cls-1" d="M815.26,370.45v75.88h-5.93V370.45ZM814,416.29l-2.62-1.48a28.27,28.27,0,0,1,3.11-11.51,22.17,22.17,0,0,1,7.36-8.3,18.94,18.94,0,0,1,10.82-3.11,19.83,19.83,0,0,1,9.14,1.95,13,13,0,0,1,5.85,6.27q2.05,4.32,2.05,11.39v34.83h-5.92V411.45a19.62,19.62,0,0,0-1.56-8.62,9.22,9.22,0,0,0-4.37-4.45,15.75,15.75,0,0,0-6.67-1.31,14.6,14.6,0,0,0-7.39,1.83,17,17,0,0,0-5.33,4.77,23.41,23.41,0,0,0-3.29,6.3A21,21,0,0,0,814,416.29Z" transform="translate(-545.19 -370.45)"/><path class="cls-1" d="M898.85,415.2l.1,4.6H887.39q-9.09,0-14.18,3.14a9.95,9.95,0,0,0-1.88,16q3.21,3,8.79,3a19.87,19.87,0,0,0,8.67-1.8,18,18,0,0,0,6.23-4.77,16.4,16.4,0,0,0,3.33-6.47l2.52,3.46a18.26,18.26,0,0,1-2.32,5,21.72,21.72,0,0,1-4.37,4.86,22.36,22.36,0,0,1-6.37,3.66,23.34,23.34,0,0,1-8.38,1.4,19.61,19.61,0,0,1-9.09-2,14.79,14.79,0,0,1-6-5.43,14.45,14.45,0,0,1-2.13-7.78,14.3,14.3,0,0,1,6.52-12.38q6.52-4.52,17.84-4.52Zm-1.39,21.54V409.18a11.61,11.61,0,0,0-3.55-9q-3.55-3.29-10.23-3.28a18,18,0,0,0-7.38,1.43,12.55,12.55,0,0,0-5.09,3.88,8.71,8.71,0,0,0-1.85,5.41l-5.88,0a12.77,12.77,0,0,1,2.57-7.59,18.83,18.83,0,0,1,7.18-5.85A24.13,24.13,0,0,1,884,391.89a24.75,24.75,0,0,1,10,1.92,15.33,15.33,0,0,1,6.87,5.81,17.51,17.51,0,0,1,2.49,9.66v25.83a40.72,40.72,0,0,0,.42,5.73,20.13,20.13,0,0,0,1.21,4.84v.65H898.7a21.54,21.54,0,0,1-.91-4.42A42.62,42.62,0,0,1,897.46,436.74Z" transform="translate(-545.19 -370.45)"/><path class="cls-1" d="M939.46,392.88v4.89H912.58v-4.89Zm-17.05-13.69h6v54.1a12.84,12.84,0,0,0,1,5.6,4.87,4.87,0,0,0,2.57,2.52,9.53,9.53,0,0,0,3.43.62,18.93,18.93,0,0,0,2.55-.17l2.25-.33.24,5a16.58,16.58,0,0,1-2.84.57,27.65,27.65,0,0,1-3.53.22,13.49,13.49,0,0,1-6-1.28,9,9,0,0,1-4.13-4.35,19.68,19.68,0,0,1-1.48-8.39Z" transform="translate(-545.19 -370.45)"/><text class="cls-2" transform="translate(193.2 182.48)"><tspan class="cls-3">F</tspan><tspan x="54.37" y="0">ol</tspan><tspan class="cls-4" x="146.88" y="0">d</tspan><tspan class="cls-5" x="210.43" y="0">erz</tspan></text><path class="cls-6" d="M717.13,423.39a12.68,12.68,0,0,0-9.3-3.87H602.43a13.11,13.11,0,0,0-13.18,13.17v105.4a13.21,13.21,0,0,0,13.18,13.17h74.65L721,507.35V432.69A12.68,12.68,0,0,0,717.13,423.39Zm-9.3,76.93H670.06v37.77H602.43V432.69h105.4Z" transform="translate(-545.19 -370.45)"/><path class="cls-1" d="M663.6,388.4l3.11,17.51H680l-3.54-20a13.52,13.52,0,0,0-5.43-8.64,12.16,12.16,0,0,0-9.86-2L556.34,393.94a14,14,0,0,0-8.76,5.43,11.92,11.92,0,0,0-2.1,9.87l18.84,104.82a12.82,12.82,0,0,0,4.2,7.53,13.67,13.67,0,0,0,7.77,3.33v-18.4l-17.52-99.73Z" transform="translate(-545.19 -370.45)"/></svg>