<svg id="Layer_1" data-name="Layer 1" xmlns="http://www.w3.org/2000/svg" viewBox="0 0 431.53 78.35"><defs><style>.cls-1{fill:#cdf449;}</style></defs><path class="cls-1" d="M919.69,493.1c.41.08.89-.33,1.07-.91h.11c.81.06.6-.51.86-.77.81-.82,1.67-1.6,2.46-2.43a4.37,4.37,0,0,0,.42-.87c.13-.23.25-.55.48-.64l2-.78,2.65-3.84c.35-.5,2.32-1.22,2.53-1.56s1.12-1.48,1.42-1.83,1.42-1.49,1.67-1.84a17.21,17.21,0,0,1,1.92-1.39c.27-.22.86-1.11.31-1.08s-1.89.45-2.66.55-2.5,1.47-3,1.6-2.75.9-4,1.39l-1.11.42-1.06.41c-1.05.63-3.33,1.93-5.08,2.89s-8.27,4.14-10.36,5.27l-1.88,1.05c-1.75,1-3.48,2-5.24,3l-1.1.61c-1.16.73-3.25,1.91-4.65,2.63s-6,3.5-7.35,4.25-6.32,4-8.19,5.12l-1.81.92-1.75.89c-1.76,1.14-4.4,2.78-5.85,3.63s-5.46,3.37-5.7,3.66-2.06.79-2.6,1.29l-.87.25-.79.22c-.74.55-1.67,1.17-2.06,1.39s-2,1.07-2.79,1.41l-.64.36-.73.4c-.76.47-2.57,1.47-4,2.21s-6.05,2.93-6.89,3.36-3.75,1.8-4.57,2.17l-.74.35-.68.31a4.34,4.34,0,0,0-1.83.94c-.2.28-2,.43-2.77.57l-.67.16-.74.19c-.81.19-1.76.38-2.12.43a7.91,7.91,0,0,0-1.6.52h0a1.46,1.46,0,0,0-1.74-.2c-.39.16-1,.08-1.47.21a7.75,7.75,0,0,1-1.74,0h-.67a16.61,16.61,0,0,1-2.5-.18,25,25,0,0,1-4-1.62l-.15-1.12-.06-.49c-.74-.5-1.23-.94-1.08-1a1.09,1.09,0,0,0,.08-1.23l-.47-.31-.47-.3c-.39-.4-.75-.74-.8-.77a8.7,8.7,0,0,1-.58-1c-.28-.51-1.69-3.08-2.44-4.64l-.14-1.56-.22-2.34c1.09-2.31,2-4.24,2.13-4.29v-.06l.13-.5a6.49,6.49,0,0,1,.75-1.76l.32-.36a6.85,6.85,0,0,0,.9-1.32l.5-.94a16.69,16.69,0,0,0,2-3l.39-.61.81-1.3a41.14,41.14,0,0,0,2.24-3.5c.27-.53.69-2,.32-1.92l-.3.13-1.56.71c-1.7.8-4.26,2.05-5.69,2.78s-5.77,3-6.64,3.3l-.77.28-.08,0c.07.34-.49.91-1.26,1.26s-3.26,1.43-3.75,1.62l-.21-.11-1.33-.72c-.23.91-.82,1.56-1.3,1.45a5.72,5.72,0,0,0-2.5.36c-.42.27-1.4-.48-.84-1.07s2.89-1,2.24-1.35l-.36-.17c-.41-.17-.81-.23-.87.28l-.06.5a12.09,12.09,0,0,1-3-1.89l1.32-1c.59-.46.49-.72.26-1.25l-.14-.32c.38-.62.79-.94.92-.72a1.44,1.44,0,0,0,1.32.45l.37-.21.22-.11a.44.44,0,0,0-.29-.63l-.27-.11-.07,0c-.12-.11.31-1,1-1.93l.69-.83.19-.22,1.61-.33-.08-.43c-.1-.56.23-.71.85-.67a1.23,1.23,0,0,0,.62-.18c-.3-1.4,1.53-1,2-1.7l.17-.23a4.32,4.32,0,0,1,1.1-.85l.36-.2c.47-.24,1-.45,1.38-.72l.88-.55c1-.48,2.38-1.16,3-1.49s2.4-1.3,3.1-1.17l.41-.68a4.57,4.57,0,0,1,1.38-1.16,1.91,1.91,0,0,1,1-.39l.76.06a47.06,47.06,0,0,1,4.66-2.16l2,.1.89.05c.94-.06,2.19-.12,2.79-.12s3-.08,4.08-.19l.87.51s.32-.4.69-.08l.68.6c.79.63,1.59,1.24,1.77,1.36l0,.07c-.52,1.48,1.24,2.29,1.62,3.55l.27.91a7,7,0,0,1,2.16,2.26l.14.25.84,1.54a55.49,55.49,0,0,1-3.8,6.14l-.23,2c0,.05-.16.1-.16.14l0,.73c-.51.62-1.37,1.75-1.92,2.52l-.45.73c-.41.67-.71,1.39-1.12,2.06l-.42.68c-.53.71-1.15,1.63-1.38,2s-1.21,2.09-1.65,2.84l-.45.66c-.26.38-1,1-.89,1,.71.56-.2.89-.26,1.31l-.06.4c-.46.51-.49.88,0,.83l.29-.13,1.19-.51,3.06-1.92a25.71,25.71,0,0,1,3.05-1.11c.08,0,.57-.3,1-.55s2.21-1.33,3-1.74,3.31-1.72,4-2a12.87,12.87,0,0,0,2.3-1.61c.08,0,.64-.23,1.09-.4s2-1,2.43-1.17a12.3,12.3,0,0,0,1.84-1.18c.19-.15,1.09-.36,1.3-.52l.2-.15c.33-.25.69-.48,1-.75.7-.6,2-.54,2.46-1.23l.63-.85a28.83,28.83,0,0,0,2.78-1.25,15,15,0,0,1,2.72-1.15l0-.66v-.2l1.83-.48a18.87,18.87,0,0,0,2.35-1.31c.64-.38,3.19-2,4.36-2.69s5.21-3.11,6.39-3.84l6.59-3.94c1.24-.72,5.27-3.17,6.23-3.8l.9-.56,0,0c.26.22.85.09,1.3-.28s1.86-1.16,2.24-1.05l.11-.08c.73-.53,1.08-1.28,2-1.77s1.82-.75,2.66-1.21l.79-.43c.85-.48,2.44-1.34,3.53-1.91s4.5-2.26,5.06-2.71a25.91,25.91,0,0,1,3.63-1.76c.69-.27,2.82-1.25,3.25-1.51l.32-.3a1.45,1.45,0,0,1,1.29-.43l.69.12c.23-.44.53-.77.65-.73a.82.82,0,0,0,.73-.51h.1c.89.05,1.24-.81,1.77-.84.71-.06,1.39-.55,2.15-.22l.07,0c.06.07.43-.13.83-.42a24,24,0,0,1,2.82-1.11c.53-.21,2.3-.9,2.74-1.05a15.75,15.75,0,0,1,2.9-.13l.25-.71c.09-.26.9-.42,1.42-.53a24.26,24.26,0,0,1,4.84-.84c.64,0,1.18-.72,2-.27s1.15-.39,1.74-.41l.66,0a18.74,18.74,0,0,0,2.84.45,20.58,20.58,0,0,0,3.82-.05l.18.58c0,.11.75,0,1.23.09l2,.47a29.06,29.06,0,0,1,2,2.74l-.06,0c-.92.67-.08,1.23.22,1.76.43.74.77,1.5,1.16,2.26l.55,1.1a26.26,26.26,0,0,1,2.42,3.2l-.43.76a11,11,0,0,0-.73,2.19c0,.19-.06.42-.2.54l-1.63,1.43a60.36,60.36,0,0,1-3.4,5.51l-1,.78-1.21.93c-1.23,1.09-2.32,2-2.41,2.06v0l-.42,1.83a38.42,38.42,0,0,0-3.87,2.83c-.33.34-2.09,1.71-3,2.4l-.35.92-.06.18a14.18,14.18,0,0,1-1.16,1.09c-.5.43-2.64,2.27-3.58,3.19s-4,3.82-4.67,4.51-2.95,3-3.53,3.76-2.49,3-2.93,3.33l-.41.34a12.8,12.8,0,0,0-2,2l-.41.53a17.06,17.06,0,0,0-1.64,1.34l-.11.23-.44.87a16.4,16.4,0,0,0-1.94,1.78l0,.07.06.11c.16.13-.14.73-.68,1.33a22.51,22.51,0,0,1-2.85,2.59c-.46.23-.35,1.55-.49,1.71l-.14.16-1.33,1.57a34.06,34.06,0,0,0-1.74,3.9c0,.22.24.92.55.82a7.53,7.53,0,0,1,1.88-.11l.47-.18,1-.36,4.1-1.16,1-.38c.65-.25,1.29-.41,1.94-.62l.93-.3c.46.37,1,.52,1.26.34s.79-.7.72-.76-.18-.42.2-.38l1.48.15,0-.1.07-.42a7.17,7.17,0,0,1,1.46-1,44.31,44.31,0,0,0,4.25-1.68l.3-.11c.23-.09.64.14.85,0s.22-.44.41-.61a.81.81,0,0,1,.62.17l.26.3a.8.8,0,0,0,1,.42,7.81,7.81,0,0,0,1.21-.76,1.28,1.28,0,0,0-.71-.09c-.35,0-1.15-.05-1-.33a5,5,0,0,1,2.5-.52l.34-.9a2.11,2.11,0,0,1,1.42-.71l.92.6a5.73,5.73,0,0,1,2-1.49v-.25l0-1a1.91,1.91,0,0,0,1.89,0l.34-.27c.47-.37,1.36-.41,1.81-.79s1.09.88,1-.25c0-.21.8-.38.91-.66l.29-.72A2.4,2.4,0,0,0,951,515c.27-.2,1.16-.58,1.38-.37s1.24-.8,1.91-1.24a19.51,19.51,0,0,1,2.6-1.54c.13.06.7.07.67-.27l.06-.23,0-.17c.16-.15.54,0,.84.27s1.15-.85,1.72-.94l0-.68c0-.42.81.79,1-.28l.13-.77a5.16,5.16,0,0,0,1.47.89c.18,0,.81-.22.69-.49s0-1,.45-1,1.54-1.34,2.28-1.83,3.31-1.19,3.26-1.64l.21-.13.67-.41a10.69,10.69,0,0,0,2.42-1.19c.49-.36,2.28-.52,2.39-.79l-.07,0-.66-.37a11.53,11.53,0,0,1,1.86-.9,15.53,15.53,0,0,1,2.32-1l.24,0,.39,0c.47-.14.72-.29.55-.35s-.38-.27,0-.32,1.37-.21,1.48-.77,1.78-1.22,1.84-1.09l0,.17,0,.2c0,.08.16,0,.35-.13l.79-.64a1.47,1.47,0,0,1,.45-.62,9.49,9.49,0,0,1,1.88-1.15c.39-.1.83-1.07,1-1.21s1.52-.57,2.19-.95l.63,0c.82,0,.74-.78.8-.75l1.5.84a6.06,6.06,0,0,1,2.21-2.86l.87-.47c.61-.33,1.09-1.16,2.12-.51.12.08.73-.21,1-.43a7.59,7.59,0,0,1,3.13-1.72l.12,0c.38.39.78.42.9.07s1.46-1.21,2-1.48l.59.35,0,0a.9.9,0,0,0,0-1l.54.2c.72.27,1.22.24,1.4-.31a1.35,1.35,0,0,1,1.79-.92c1,.21.45-1,1.31-.86a9.12,9.12,0,0,0,1.73,0c.08,0,.13-.22.2-.32l.47-.71a11.78,11.78,0,0,1,3.12.19l0-1a1.58,1.58,0,0,1,.64-.17c.59-.05,1.38.23,1.41-.67a3.63,3.63,0,0,1,.88-.14c.44-.05,1.07.18,1-.52v-.1c.14-.1.9-.53,1.67-.94s3.53-.39,3.92-.63a9.53,9.53,0,0,1,3.42-.49l.76-.28.77-.3a4,4,0,0,0,1.81.16c.36-.1,2-.26,2.85-.39l.57.62c.09.09.48,0,.73,0h1c.92.39,2.27,1,3,1.35l.58.46a2,2,0,0,1,1,1.94l0,.27.71.93c.14.18.41,2,.52,2.25l.16.22c.36.49.75,1,1.12,1.45a2.1,2.1,0,0,1,0,1.29c-.12.36-.67.68,0,1.12l.18.12c-.12.5-.34.82-.48.72s-.61-.2-.77,0a4,4,0,0,0-.23,1.58l-.15.59-.14.53c-.42.42-1.12,1.08-1.56,1.47s-.62,1.87-1,2-1,1.75-1.83,2.64l-.51,1-.73,1.38a14.91,14.91,0,0,0-1.52,3.3c0,.3-1,.51-.94.78s-1.48,1.46-2.32,2.61l0,1.27c0,.48-.62.43-.71.55l-.47.74c-.34.89-.42,1.79-.17,2l-.59.09c-.15,0-.43.06-.43.1,0,1.27-1,2.22-1.59,3.33a1.78,1.78,0,0,0,0,1l.09.64a12.53,12.53,0,0,0,2.61-.31,7.53,7.53,0,0,1,3.38.08l.59-.68a4.74,4.74,0,0,1,1.32-.74,9.89,9.89,0,0,1,1.44-.41l.33.28a2.38,2.38,0,0,0,1.19-1.09c.26-.49,1.9.14,2,0v-.11c0-.85,1.14-.56,1.24-.45.72.83,1.32.06,1.88-.08l.51-.12a3.38,3.38,0,0,0,.77-1c0-.14,0-.56.06-.71a1.29,1.29,0,0,1,.85-.47c.28.05,1.32,0,1.59,0s1-.06.94-.39-.13-1.29.23-1.29a3,3,0,0,0,1.36-.3.5.5,0,0,1,.8.17l.8-.53.36-.24c.46-.18,1.45-.6,2.2-.93l0-.78c0-.1.32-.29.49-.29s.36.18.48.31l.22.27a.55.55,0,0,0,.92,0l.27-.23c.14-.12.52-.13.54-.23l0-.19c0-.2.12-.33.27-.27s.63,0,.54-.35-.08-1.23.34-.68l.28,0,.28,0c.36-.28,1.53-1.24,2.6-2.14l1.08-.69c.21-.14.46.06.44.34v.1c-.19.15,0,.28.31.28s1.33-.15,1.36-.34.28-.72.5-.72.94-.25,1-.54.39-1.11.71-1.11a3.57,3.57,0,0,0,1.82-.75,6.44,6.44,0,0,1,1.75-1.29l.14.05c.29.09.69.35.82.28l.48-.26a17.15,17.15,0,0,0,1.67-1.87l1.78-.41c.14,0,.39-.18.37-.23l-.41-1.24a7.51,7.51,0,0,1,2.85-.62l.3.17c.39.21.58.6,1.23.28l.88-.42c.11-.53,1.14-1,2.3-.94l.61-.9s.49.26.67.21l1.25-.37a1.74,1.74,0,0,1,1.77-1.83l0,.12.08.53a5.14,5.14,0,0,0,1.83-.6l-.44-.37c-.61-.51-.08-.68.22-.88l.68-.45a2.65,2.65,0,0,1,2.08-.41c.34.23,1.74.1,1.35,0s-1.28-.42-1.14-.62a3,3,0,0,1,2.07-.22l.34-.89c.3-.77,1.13-.21,1.65-.4l.35-.13c.38-.21.77-.23.88-.05a.63.63,0,0,0,.85.13c.27-.26-.34-.9.12-.83s1-1,1.34-1.1a9.54,9.54,0,0,0,1.46-.42h.07c.84-.19,1.89.33,2.52-.45l.42-.51c.36-.61,1.1-.61,1.65,0l.3-1.31a1.94,1.94,0,0,1,2.16-1c.31,0,.71-.24,1-.42s.7-.56,1.11-.77l1.29-.65c.78.64,1.83.83,2.32.41l.48-.34c.1-.08.35-.05.52,0l1.14.09a3.12,3.12,0,0,0,0-1.91l.82,0h.42a5.49,5.49,0,0,0,1.08-.32v-.1l0-.5c.44.07.64.35.45.61l.08.08a2.85,2.85,0,0,0,.94.57s.34-.31.49-.49.37-.41.35-.6-.62-.44,0-.48l.65-.05c.79.15,1.44.08,1.46-.16a2.24,2.24,0,0,1,.33-1h.14c.5,0,1,0,1.5,0l1.19.09c.27-.45.73-.79,1-.73a3.27,3.27,0,0,0,1.6-.11l.37.59,0,.06a3.8,3.8,0,0,0,1.66-.9l.33-.1.51-.15a10.43,10.43,0,0,0,1.82-.09c.35-.08.6.72.7.73s1-.09,1.7-.17,2.5.78,2.08.78-.9.57-.3,1.26l1.06-.76c.45-.32,1.87.47,1.74,1l-.21.81a6.66,6.66,0,0,0,1.19,2.53l.38.53a10.39,10.39,0,0,1,1.05,1.68c.19.44.6,1.09-.59,1.14-.08,0-.21.44-.16.65s.29.58.36.89l0,.12c-.16.17-.38.25-.47.19s-.53-.06-.52.32l0,.25,0,.54c-.46.42-1.23,1.09-1.71,1.49a23,23,0,0,0-1.48,1.95,5.47,5.47,0,0,0-.64.77c-.22.28-1.27.8-.86.87s.52,1-.56,1.94l-.26,1.16c-.1.44-.52-.16-.64-.11l-.29.14a7.15,7.15,0,0,0-.69.82c-.13.2-.06.82-.34.9s-1,.37-.77.42.74.65.51,1.13-1.89,1.08-1.78,1.65l-.16.47c-.09.24-.76.44-1.2.48-.59.06-.49.35-.64.66l-.39.81a12.23,12.23,0,0,0-1.23,2c-.09.27-.59.76-.69.5s-1.42-.16-1.86,0l.26.28.43.45c-.39.09-.73.28-.74.44l0,.13c.07.39.18.76.22,1.15s0,.71-.75,1l-1,.38a18.3,18.3,0,0,1-.07,2.35,6.06,6.06,0,0,1-1.05,1.48c-.43.44-1.45,1.67-1.27,1.73s.67.34.37.38-1.23.5-1.3.91l.16.34.13.29c.41.24.65.48.51.51a.4.4,0,0,0-.08.68c.35.27,1.29.8,1.42.68s.62-.37.74-.24a2.64,2.64,0,0,0,1.76.18c.68-.21,2.41-1,2.61-.65s1.29,0,1.2-.09.18-.51.92-.66,2.75-.41,2.67-.21-.07.78.31.66,1.24-.51,1.14-.6-.43-.53-.14-.45l1.07.26a4.63,4.63,0,0,0,1.38-.16c.52-.14,1.4-.89,1.06-1.19s.87-.56,1.14-.08l.67.14.07,0c.07.08.35-.23.61-.69s2.18-.8,2.62-.85a7.51,7.51,0,0,0,1.82-1c.27-.17,1.39.36,1.6.91l.87-.54.34-.21c.73-.06.71-.21,0-.33l-.38-.23-.19-.12a1.06,1.06,0,0,1,.85-.9l.11.1,1,.85c.24-.75.86-1,1.38-.54l.92-.34.62-.24c.88.1,1.68.17,1.78.16s1-1.11,1.34-1.41l.42-.16c.15-.06.68.18.69.3l0,.7a7.92,7.92,0,0,0,2-.86,8.5,8.5,0,0,1,2-1c.06.11.27,0,.27-.51l.6-.34c.33-.19,0-.94.83-.69.22.07.22.56.34.85l0,.12c.09.1.4-.28.69-.85l.4-.44.53-.58a20.64,20.64,0,0,1,1.65,1.25h.17c.43,0,.38-.07.3-.42l-.07-.36a3.84,3.84,0,0,1,1.46-1c.45-.15,1.92-.62,2.34-.8s1.7-.61,1.94-.43a5.2,5.2,0,0,0,.92.56.36.36,0,0,0,0-.39c-.08-.17,0-.68.43-.6s1.62.13,1.49-.06a1,1,0,0,1,.43-1.12l.43-.12c.22-.06.74,0,.78.15.17.39-.08.62-.63.58H1176c-.23.18.25.57,1.07.86l.23-1a2.6,2.6,0,0,1,.49-.84l.52-.74c.81.13,1.81.31,2.23.4l.39,0h.1c.15-.14.14-.29,0-.34s-.61-.35-.37-.49,1-.37,1.08-.11.24.85.31.83a3.78,3.78,0,0,0,.75-1.06l.77.7.1.09c.78-.3,1-.68.47-.85l-.24-.17c-.1-.07,0-.51,0-.51.79,0,1.59.07,2.38.14,0,0,0,.24,0,.37l0,.06c.12.08.44-.12.71-.43s1.39-1,1.78-.81l.28.21.31.22c.36.31.81.37,1,.14a1.83,1.83,0,0,1,1.33-.55l.36.05a1,1,0,0,0,.17-.52l0-.2c-.14-.21,0-.4.26-.42l.14.09c.33.23.78.54,1,.17.5-.82,1.58-.56,2.3-1l.86-.49c.09.63.31,1,.5.75s1-.69,1-.21l-.14.09c-.45.31-.33.54.08.73a1.77,1.77,0,0,0,.81.17l.6-.87a5.17,5.17,0,0,0,2.56-.9l.34-.17.31-.16a9.84,9.84,0,0,0,1.63-.23c.45-.11,2-.07,2.74-.19l.45.66a1.12,1.12,0,0,0,.8.28l.64-.45a6.46,6.46,0,0,0,2.23.23c.52-.08,2.19.86,2.86,1.15s2.83,0,3,.14l.2.1,1.44.77a20.22,20.22,0,0,1,3.39,2.1,11.07,11.07,0,0,0,1.2,1.5c.25.14-.12.77-.13.81s-.07.85-.08,1.76l.22.8c.12.41.57.75.86,1.13l.29.38a1.08,1.08,0,0,1,.13,1.31l-.33.08-.53.13c-.07-.39-.29-.73-.5-.75l-.1.07c-.08.07,0,.36,0,.37l-.28.06c-.31,0-.53-.05-.47-.16s-.17-.34-.62-.3-1-1-1.41-1.13-1.12-1.17-1.38-1.35a3.47,3.47,0,0,0-1.37-.41c-.19.06-.78,0-.9-.23l-.16-.21a3.45,3.45,0,0,1-.51.15H1216c-.32,0-1.16-.21-1.88-.36a21.81,21.81,0,0,0-4-.16c-.73.08-2.82.39-3,.45a5.61,5.61,0,0,1-1.57,0,23.41,23.41,0,0,1-2.88.26l-.49.65a.3.3,0,0,1-.22.05L1201,505a4.12,4.12,0,0,0-2.5.34,17.35,17.35,0,0,1-3.46,1.12l-.86.27c-.29.08-.72-.81-.86.11-.1.64-.79.26-1.2.36l-.45.1a3.18,3.18,0,0,1-1.58-.11c-.37-.16-1.63.68-2,.8s-2.1.57-2.94.74l-.71.23c-1.3.41-2.85.36-3.81,1.41l-.12.14c-.45,0-1.4-.07-2.12-.08l-.46.52-.16.18a11.82,11.82,0,0,1-1.3.16,5.77,5.77,0,0,0-1.43.7c-.18.1-2,.52-3.72.85l-1.27.82c-.07.05-.62-.7-.79.18l-.06.28c-.68.2-2,.57-2.94.82a41.09,41.09,0,0,1-4.09,1,10.15,10.15,0,0,0-2.15.69c-.59.21-2.24.94-2.44,1a11,11,0,0,1-1.8.22c-.59,0-2.14.79-2.65.78s-2.61,1.2-4,1.77l-1.39-.79-.08-.05c-.19.09-.88.37-1.52.62l-.41.46c-.67.77-2,.18-2.84.85l-.67.5c-1.18.16-2.69.41-3.35.56l-.6.13-.94.21a.78.78,0,0,0-1.16.14c-.24.37-1.62-.21-1.79-.22l0,0c-.14.27,0,.79-.63.63l-.43-.1c-.44-.35-.85-.47-.93-.29a7.76,7.76,0,0,1-2.85.56l-1.1-.32c-.84-.25-1.19.61-1.93.18l-.62-.35c-.81-.25-1.77-.51-2.15-.58s-1.51-.37-1.71-.45a4.85,4.85,0,0,1-1.2-1.4l-.33,0-1,0a3.69,3.69,0,0,0-.71-2.49l-.61-.73-.65-.78c-.33-1-.64-1.92-.68-2s-.06-.83-.13-1.6l0-.72.07-1.18c.42-.81,1-1.79,1.18-2.18l-.48-.09c-1.28-.24-.76-.65-.2-1,.84-.55,1.51-1.24,2.3-1.82s.66-1.45.69-2.22v-.08a4.46,4.46,0,0,1-.66-.44c-.18-.15.76-.67,1-.8l.14-.18.41-.54c.47-.7.94-1,1-.7l.06.18c.09.25-.94.36-.13.66.11,0,.44-.23.62-.39a2.08,2.08,0,0,0,.36-.48l.55-.77c-.88-.37-1.33-.7-1-.74s1.17-.24.93-.33-.59-.4-.39-.56,1.12-.28,1.12-.65.21-1.57.48-1.32.69.45.56.07.71-1.24.79-1.18.5.13.54-.07,0-.79-.32-.65h-.16a.92.92,0,0,1-.41-.15l.19-.41a15.67,15.67,0,0,1,1.21-1.69c.42-.51,2.16-2.37,2.78-3.19l.32-.86.17-.43a2.78,2.78,0,0,1,1.1-.94c.29-.08.62-.54.68-.32s.33.53.51.17-.28-1.27.1-1.29a5.61,5.61,0,0,0,2-.75l-.06-.21c-.23-.78-.51.13-.71,0s-.3-.44-.23-.5l.32-.26a7.88,7.88,0,0,1,1.5-.63l.32-.17c.17-.08.37-.41.32-.47-.26-.24-.74-.38-.88-.65l-.1-.21c.22-.34.15-.69-.18-.79l-.07.07a6.23,6.23,0,0,1-2,.92c-.72.32-1.46-.71-2,.25-.44.78-1.49.29-2.25.44a2.12,2.12,0,0,0-.77.44,4.63,4.63,0,0,1-2.36.81,6.27,6.27,0,0,0-2.33.8l-1.23.69c-1.49.62-2.91,1-3.18.78s-1.08-.67-1-.43a4.45,4.45,0,0,1,.17.95h-.12l-2,.3c-1.71,1.07-4.12,2.46-5.36,3.08l-1.29.26c-.61.13-.37.51-.61.7a3,3,0,0,1-.84.3,4.76,4.76,0,0,0-2.61,1.29l-.07.09c-.18.06-.89.24-1.58.41a25.55,25.55,0,0,0-4.28,2.44l-1.14.34L1095,497c-2.94,1.68-6,3.43-6.9,3.89a41.69,41.69,0,0,0-3.93,2.14l-.4.08-1,.2c-.75.59-1.64,1.33-2,1.64s-2.44.55-3.31.93a32.89,32.89,0,0,0-3.73,2.62,21.88,21.88,0,0,1-2.91,1.12c-.35.15-2.11,1.39-3.31,2.25l-1.32.38-.78.23a3.93,3.93,0,0,1-1.28,1,13.42,13.42,0,0,0-1.48.82c-.15.11-.8.32-1.16.51s-1.75.63-2.45.9l-.55.38-1.09.76c-1.31.69-2.53,1.35-2.71,1.46a13.58,13.58,0,0,1-2.13.48l-.63.23-.57.2a21.07,21.07,0,0,1-2.09,1.13l-.54.25c-.61.28-1.55.46-1.75.87l-.31.64a7,7,0,0,0-2.27.38l-5.33,1.9-1.42,0-1.5,0a40.58,40.58,0,0,1-6.09.62l-1.41-.72-.45-.23a1.67,1.67,0,0,1-1.13-.16l-.16-.19c-.41-.49-.93.1-1.06,0l-.5-.56a11.1,11.1,0,0,1-1-2.08c-.14-.46-1.46-1.38-1.64-1.49l0-.08c.24-.9-.51-1.45-1-2.13a22.34,22.34,0,0,1-.88-2.14l-.55-1c0-1.12-.08-2.84-.07-3.81l.56-.68a6,6,0,0,0,1-2.54l.19-.76c.79-.73,1.8-1.14,2.25-.92l.22-.46.2-.42c0-.49.05-1.31.09-1.82l.63-.18.21-.06c.44,0,.56-.23.29-.49l-.23-.11-.25-.13c-.37-.11-.24-.23.28-.28s1.35-.9,1.08-.94-.72-.42-.31-.78.49-2,.59-2.45,1.45-1.23,1.33-1.55l.13-.12.32-.29a.86.86,0,0,0-.16-1.32h1.85a1.34,1.34,0,0,1,.69-1v-.4a1,1,0,0,1,.08-.9c.16-.15.47-.68.32-1l.3-.3.39-.4a2.59,2.59,0,0,0,.39-2.06l1.07,0,.75,0a5.56,5.56,0,0,0,.61-1.2c0-.19-1.59-.39-3.76.13a99.15,99.15,0,0,0-9.51,3.36,41.55,41.55,0,0,1-5.61,1.6c-.72.13-2.34,1.67-3,2a38.05,38.05,0,0,1-3.55,1.42,23.57,23.57,0,0,0-2.63,1.41c-.22.11-1.6.41-2.52.62l-.5.73-.19.27c-.56.15-3.76,1.31-7.11,2.58l-2.53,1.9-.56.42a12.44,12.44,0,0,1-2.25.89,14.6,14.6,0,0,0-2.21,1.37l-2,1.25c-.34.22-1.4.85-1.58.94s-1.11.4-1.62.56l-1,.83a2.74,2.74,0,0,1-1,.51l-1,.32a19.74,19.74,0,0,1-3.89,2.14l-1,.8-.21.18a10.71,10.71,0,0,0-1.4.81c-.46.31-2.58,1.35-3.38,1.9l-.82.34-.92.38-3,1.72c-.73.43-3.12,1.43-3.37,1.67s-.91.81-.41,1.25l-1.29-.07c-.38,0-.79.37-1.21.53a14.85,14.85,0,0,0-1.52.45c-.41.21-.69.78-1.07.81-1.34.09-2,1-3,1.45-2,.89-3.92,1.87-5.86,2.84l-.93.47a46.91,46.91,0,0,1-5.83,2.41l-1.67,1.19-.53.37a6.92,6.92,0,0,0-2.72.49c-.84.34-3.36,1.2-3.87.94l-.33.65c-.28.54-1,.29-1.51.45l-.5.17c-.49.28-3.13,1.3-5.87,2.25l-2.66.51-.62.12c-.68.09-1.5.21-1.83.28s-2.25.38-3.55.5-5.22.09-5.86,0a21,21,0,0,1-3.44-1.19l-.23-.41-1.2-2.13a41.12,41.12,0,0,1-3.81-5.74l-.37-.9-.38-.92a5.26,5.26,0,0,0,.22-2.31,9.44,9.44,0,0,1,0-2.22c0-.56.44-2.09.19-2.36s.8-1.4,1-1.89l.17-.49c.19-.55.28-1.12.52-1.65l.21-.47a10.47,10.47,0,0,0,1-2l.27-.52a2.41,2.41,0,0,1,.77-.75,2.14,2.14,0,0,0,.78-1.38,10.61,10.61,0,0,1,1.55-2.93,12.57,12.57,0,0,1,1.72-1.46c.41-.37-.19-1.27,1-1.29.13,0,.27-.7.37-1.08l0-.08c-.08-.11.35-.67.94-1.25a22.26,22.26,0,0,0,2.67-3c.22-.54,2.27-1.93,2.79-2.72l.35-.77c.11-.24.12-.63.31-.69,1.25-.43,1.29-1.44,1.75-2.24Z" transform="translate(-793.47 -459.67)"/></svg>