<svg id="Layer_1" data-name="Layer 1" xmlns="http://www.w3.org/2000/svg" viewBox="0 0 683.96 99.4"><defs><style>.cls-1{fill:#8e48f4;}</style></defs><path class="cls-1" d="M761.28,455c1.78.16,2.75.91,2.16,1.65l1.36.55.36.14a.86.86,0,0,0,1-.52l-.14-.27-.15-.3a3.2,3.2,0,0,1,.8-.81l.28-.2,1.27-.7.53-.71c.37.44.78.59.9.35a3.44,3.44,0,0,1,1.19-.92c.51-.27,2.11.12,2.25-.05s1.11-.13,1.23-.46l.46-.15.1,0c.1-.06,1.46-.58,3-1.16l1.63.25.17,0a1.1,1.1,0,0,0,.74-.37,3,3,0,0,1,1.7-.61,15.68,15.68,0,0,0,2.72-.82l.7-.1.22,0a1.29,1.29,0,0,0,1.19-.21,11.37,11.37,0,0,1,2.06-1.2c.41-.1,2.28-.66,3.28-1l1-.07.79-.05a16,16,0,0,0,2.36-1.58c.47-.41,2.5.34,3,.23l.36-.26c.37-.27.49-.76.83-1.07l.08-.07a4.23,4.23,0,0,0,2.44-.2c.88-.3,3.21-1.23,3.53-1s2-.51,2.63-.76l.39-.38,1-1c1,.52,2,.79,2.05.6l0-.17.11-.5a4,4,0,0,0,1.58-.47,22.23,22.23,0,0,0,2.16-1.25c.48-.41,2.08.43,2.21.34s1.19-.59,2-1,3.08-1.38,3.14-1.44a13.18,13.18,0,0,1,1.9-.23c1-.08,3.48-1,3.71-.89a6.31,6.31,0,0,0,2.26-.71,22.54,22.54,0,0,1,4-.69c.11,0,.46-.28.17-.38s-.34-.72.39-1.2,3.12.32,3.24.23.94-.41,1.48-.65,2.39-.44,2.64-.69l.27-.21c.21-.17.49-.42.72-.41l.67,0a2.84,2.84,0,0,0,2.27-.67l.54-.19.75-.26a27,27,0,0,1,3.15.37c.77.16,3.22-1.23,4.16-1.71s4.47,0,5.37.21l.77-.59a3.55,3.55,0,0,1,1.42-.6l.78-.13a3.48,3.48,0,0,0,2.6-.08l.69-.23c.23-.08.69.41,1,.39l1.09-.06c1.16-.24,2.49-.5,2.95-.58s1.87.45,2.47.26,2.74.32,3.33.32l.54,0,.25,0a6.44,6.44,0,0,1,2-.16c.84,0,4,1,5.55,1.19s7.18.33,9.09.3l1.22,1.25a1.09,1.09,0,0,0,1.71.07l.08-.06a14.15,14.15,0,0,0,1.29.61,3.82,3.82,0,0,0,1.28,0c.4-.06,1.27.63,1.7.94s2.09,1.59,2.9,2a20,20,0,0,1,3.7,4.49l1.17,1,.08.07c-.18.28.07,1.16.55,1.95s1.54,3.08,1.61,3.23.35,1.3.59,2.14l.28.75c.19.52,1.49.52.93,1.41l-.57.91a5.07,5.07,0,0,1,2.1,1c.2.28,1.08,1.62,1.45,2.33l.58.21,1,.37c1.27.18,2.94.36,3.72.41s3.41,0,4.09.1l.64.11.54.08a7.35,7.35,0,0,0,2.24-.32c.63-.21,3.77-.09,4.25-.5l.7.7c.46.46.48-.3.48-.54,0-.87.27-1.29,1.39-.69l.17.09c.3,0,.65-.47.79-1l.79.55.21.15c.73-.29,1.48-.4,1.66-.24s.9.59,1.09.53l.16-.05c1.49-.48,3-.95,4.48-1.44l.89-.3c.94-.38,2.18-.93,2.75-1.22l.81.34.56.24c.55-.58,1.21-1,1.49-1l.24,0,.35.05a22.25,22.25,0,0,0,3.06-.64,1.69,1.69,0,0,1,1.36.5c.45.44,1.8-.91,2.28-.91s1.7-.78,2-.75a2.44,2.44,0,0,0,1.62-.69c.22-.38,1.43.23,1.53.08a3.86,3.86,0,0,1,2.09-.79l.89,0h.44a8.43,8.43,0,0,0,2.34-1.32l1.17.21.87.16a16.58,16.58,0,0,0,2.53-.53,20.66,20.66,0,0,1,2.29-.94l.6.13c1.37.32,2.37-.1,4.43-1.36l.14-.09a13.87,13.87,0,0,0,2.8-.16l.71-.45.21-.13c.39,0,.64.22.56.43l0,.21-.09.5c.16.61.63.56,1-.13l.58-.44.59-.46c.89-.32,1.42-.31,1.17,0s.51,1.06,2,.69,5.12-.7,4.58-.86a5.52,5.52,0,0,0-2.78.14l-.46.19-.33.13c-.46,0-.84-.22-.83-.42s.73-.85,1.34-1.16a16.75,16.75,0,0,1,3-.36c.15-.08.64-.47.82-.24s1.77.3,3.27-.2l.93-.52a1.52,1.52,0,0,1,1.74,0,2.64,2.64,0,0,0,3.06-.38l.32-.29a11.44,11.44,0,0,1,2.13-.17c.54,0,2.53-.27,3.33.13l.82-.56.71-.48,1.84-.31c.07,0,1,0,2,0a25.05,25.05,0,0,0,4-.32,3.18,3.18,0,0,1,2.36.28c.79.5,3.81-.53,4.31-.58l.44.09c.5.09,1.09.54,1.39.42s.45-.77.79-1.09l.27-.24a2.42,2.42,0,0,1,1.38,0,1.92,1.92,0,0,0,1.34-.11,2.21,2.21,0,0,1,1.33-.34l.25,0a5.35,5.35,0,0,0,2.29,0c.88-.45,1.54-.74,2.42-.14l.13.09a2.13,2.13,0,0,0,1-.57c.38-.33,2.57.12,3.19.14s2.24-.34,2.3-.8,1.82.07,2.35.38,3.11.27,3.48.46,1.34-.48,1.67-.38a2.72,2.72,0,0,0,1.85-.25,4,4,0,0,1,2.83-.61l.48.31,1.54,1c-.54-1-.36-1.46.4-1.1s3.12.63,3.35.8,1,.51,1.18.3,1.07-1.47,1.62-2.27l1.34.9c.79.53,2.24-.15,3.13.7l.14.14a7,7,0,0,0,1.83-.66,8.69,8.69,0,0,1,3.22-.13l.87.08.52,0c.6-.14,1.63-.34,2.28-.44s3.8.27,4.32.19,2-.19,2.09,0a1.9,1.9,0,0,0,1.34.71c.56,0,1-1.31,1.12-1.32s1.63.27,3,.56l1.24-.29.34-.07a6.28,6.28,0,0,1,2.28.16c.91.2,3.87.12,4.83.63l.91-.72c.6-.49.92-.82,1.09.25.08.52.81.42,1.34.06l.48-.32a10,10,0,0,0,2.42-.39l.61-.12.17,0a8.57,8.57,0,0,0,1,.86,8.36,8.36,0,0,0,2.6.2l.14-.11.86-.65a2.92,2.92,0,0,0,1.94.58l.38-.14.58-.21a34.24,34.24,0,0,0,4.18-.56,15.77,15.77,0,0,1,4.26.47l.7-.44.66-.42a11,11,0,0,0,3.14.26c1.06-.06,3.82.21,4.2-.05l.34-.16.1,0c.12-.1.28,0,.36.15a.9.9,0,0,0,1.3,0c.51-.52,3.31.1,4.12,0s2.73.86,2.77.83.75-.3,1.46-.55a37.56,37.56,0,0,1,5.81,0l.53-.15.18-.05c.1-.54.38-.76.62-.5a3.93,3.93,0,0,0,1.64.65,13.08,13.08,0,0,0,2.71-.77,11.7,11.7,0,0,1,4,.19c.42.12,2.28-.08,3,.11l.68,0,.3,0a.91.91,0,0,1,1.31-.45,2.56,2.56,0,0,0,1.94,0c.33-.23,2,0,2.84-.56l.69,1h0c.13,0,.91-.19,1.73-.33s2.76-.39,3.21-.5a5.08,5.08,0,0,1,2.48.39c.46.33,2.22-.47,2.86-.29a17.37,17.37,0,0,0,3.27-.29,13.84,13.84,0,0,1,2.38.57l.54-.34a1.75,1.75,0,0,1,1.16-.12l.75.19a7.73,7.73,0,0,0,2.94.36l.74-.16,1.09-.23a21.15,21.15,0,0,0,4.48-.15l.9.91,1.8-.71.14-.11a11.39,11.39,0,0,1,2.84,0c1.42.1,5.18,1,5.44,1a11,11,0,0,0,2.62-.71c.85-.33,3.24.49,3.35.51l2.41.26c1.08.11,4,1.32,4,1.16a9.4,9.4,0,0,1,.24-1c.1-.25,1.39.09,2.08,0s2.54.07,2.37.7,2.77.88,2.69.63,0-1,.35-1.1a5.4,5.4,0,0,1,2,.37c.57.2,2.75-.08,3.21,0s2.1.48,2.55.6a4.46,4.46,0,0,0,2.19-.44c.41-.26,1.76.51,2.07.51s1.5-.16,1.92-.1,1.81.54,2.33.65l.54-.27.19-.1c.53.35.37,1-.35,1.47l1.58.06c.76,0,1.42,0,1.25-.86l-.12-.55a5.72,5.72,0,0,1,2.57.11l.28.57c.29.57-.28.78-1,.77h-.07a.85.85,0,0,0,.78,1l.21-.16c.52-.42.77-1.09,1.34-1.41l.55-.31c.89-.08,1.64.14,1.66.48a3.53,3.53,0,0,0,1.42,1.93c.74.37,2.89-.44,3-.44s1,.18,1.87.4,3.19-.08,2.9.09a3.2,3.2,0,0,0-.76,1.84v1.22a1.79,1.79,0,0,0,.9,1.64c.5.19,1.75,1.16,1.72,1.75s-1.91,1.21-1.91.81-.23-1.67-.51-1.41a3.24,3.24,0,0,0-.79,1.69c0,.5,1.52,1.48,2.17,1.29s2.46-.43,2.2,0a2.58,2.58,0,0,0,.06,1.7c.13.33.53,1.53.73,1.91l.27,0c.85.12.9.53.58,1l-.31.42a7.45,7.45,0,0,1-1.72-.9c-.06-.12-.44-.5-.52-.1s-.6,1.39-.92.91a4.29,4.29,0,0,1-.56-1.45c0-.27-.68-.83-1-.54s-.72,1.11-1.12,1.3a11.9,11.9,0,0,1-3.06,1.35l-1.13-.18-1.11-.18a8,8,0,0,1-2.67-.18c-.17-.15-1-.52-1.33-.33a16.17,16.17,0,0,0-1.75,1c-.23.22-1.53-.11-2,.16s-2.47-.24-3,.06-2.41-.7-3-.81-2.78.48-3.66.22l-.87,0-.62,0a14.69,14.69,0,0,1-1.62,0c-.19,0-2.39.1-4.51.17s-8.26.31-9,.17-3.71.18-4.94.17l-1-.29-.66-.19c-.45.2-1.26.5-1.79.68l-.28-.13-1.91-1a29.55,29.55,0,0,1-5.47.24c-.76-.12-3.6.14-4.42.14s-3.71.05-4.57,0-3-.38-3.27.48l-1.24-.47-.92-.34a10.61,10.61,0,0,1-3.28,0l-.69.17-.82.2a3.3,3.3,0,0,0-2.09.13c-.4.25-2.19-.84-3.16-1.19s-4,1-4.93,1a17.42,17.42,0,0,1-4-.33c-.42-.29-2.39.28-2.94.36s-2.32.12-2.72.27a12.31,12.31,0,0,1-2.63,0,22,22,0,0,0-2.92,0,5.3,5.3,0,0,1-1.85-.55c-.1,0-1.86.37-3.77.79a30.3,30.3,0,0,1-6,.08c-.49,0-2.71.14-3.9.29s-5.74-.7-7.58-.81-6.68,1-6.89,1-2.08-.4-3.67-.71l-1.3.68c-.61.32-1-.79-1.55,0l-.38.51c-.55-.4-3.59-.82-6.75-.94l-2.84.21-.73.06c-.69-.06-2.11-.22-3.16-.36l-.3.33c-.69.73-1-.39-1.57,0-.79.56-1.52-.21-2.29-.29l-.82-.08a6.14,6.14,0,0,0-2.28.9c-.44.36-2.26-.37-2.86-.17s-2.55-.69-3.16-.86-2.07.67-2.17.69-1.78-.19-3.61-.39l-1.68.28-.84.14a9.85,9.85,0,0,0-2.69.34c-.58.2-2.56-.66-3.6-.59a44.45,44.45,0,0,1-6,0l-1,.79-.22.16a18.89,18.89,0,0,0-4.59-.61c-1.73,0-6.55.75-7,.55s-2.14.4-2.59.55-1.64-.36-1.73-.32-1,.35-1.72.62l-.73.07-.54,0a10.06,10.06,0,0,0-2.31-.33l-.45.21-.87.4a9.07,9.07,0,0,0-2.41-.38,6.05,6.05,0,0,0-2.38.66c-.39.37-2.09-.38-2.55-.44a24.14,24.14,0,0,0-2.57.74c-.66.1-3,0-3.65.07s-3.62.43-5.16.58-6.33.35-7.23.31-3.41.71-4,.73-2.91.42-3.67.48-3.42.49-4.16.46a33.81,33.81,0,0,0-4.16,1.05,52.57,52.57,0,0,1-5.27.28,35.88,35.88,0,0,0-4.25.94c-.36.06-1.78.09-2.36.09s-2.18.65-2.69.69a31.82,31.82,0,0,0-4.07.86c-1.22.37-5.68,1.11-7,1.28s-4.64,1.41-5.07,1.12-1.62.59-1.94.57a11.1,11.1,0,0,0-2,.52c-.45.14-1.83.74-2.24.84s-2.22.63-3.23.9-4.46,1.3-5.48,1.57-5.29,1.52-7.17,2.33l-1.9.29-.81.12a14.07,14.07,0,0,0-2.45.75,21.63,21.63,0,0,1-2.38.56,10.63,10.63,0,0,1-2.89.33c-.7-.11-4.37,1.41-7,2.12l-2.53.11a14.16,14.16,0,0,0-2.17.1c-.82.16-1.56.64-2.39.73l-.55.06a2.29,2.29,0,0,0-2,0c-.43.3-2.36-.3-2.83-.45s-2-.6-2.29-.68-1.17.07-1.49-.12-1.69.25-2.05.4a15.41,15.41,0,0,1-4.31-.71l-1.54-.5-.17-.06c0-.4-.33-.54-.62-.31a5.09,5.09,0,0,1-3.24.13,13,13,0,0,1-4.29-4.23l-1.61-.34-.79-.17a22.63,22.63,0,0,0-1.62-3,20.91,20.91,0,0,0-2.3-2.71c-.67-.55-.81-2.68-.92-2.77a9.15,9.15,0,0,0-.95-.48,12.09,12.09,0,0,1-1.93-2.31l-1.49-.49c-1.29-.43-2.26-1.45-3.48-2.07-.35-.17-1.08.18-1.63.25-.9.11-1.81.13-2.69.3l-.94.17c-1,.33-2.14.69-2.57.82a5.45,5.45,0,0,1-2.2-.23c-.4-.17-1.45.71-2.17.61l-.65,0a9.63,9.63,0,0,0-2.57,0l-1.46.34a32,32,0,0,1-4,.72c-.6,0-1.33,1.38-1.81,1.51a23.2,23.2,0,0,1-2.8.52,16.72,16.72,0,0,0-3.46.86,19.93,19.93,0,0,1-3.7.46c-.14.05-.62.43-1,.7s-2.31.82-2.8,1.11a34.83,34.83,0,0,1-3.63.8c-.83.24-3.35,1.17-3.88,1.18s-2.14.45-3.16,0l.28,1.5c0,.08-.31.28-.5.3l-1,.08a11.43,11.43,0,0,1-2.76,1.32c-.7.18-3.21.75-4,1l-3.51.93c-.36.09-1.3.69-1.91.27s-1.85,1.35-2.15,1.54l-.25,0c-1.34-.2-2.26.6-3.39.86l-.6.14a3,3,0,0,1-1.28.49c-.22,0-.82.19-.82.53s-1.22-.1-1.47,0a9.13,9.13,0,0,1-2.66,0l-.26,1.21-.13.59c-1.19.11-2.94.31-3.89.43s-3.26,1.3-3.51,1.22a30.53,30.53,0,0,0-4.89.13l-.66,2-.27.83a2.17,2.17,0,0,0-2.06-.56,18.6,18.6,0,0,0-3.66,1.63l-.67-.94a1.73,1.73,0,0,0-.88.22l-1.2.84a18.15,18.15,0,0,0-3.48,1.07c-.54.3-2.7.09-3.6.71l-1.19,0c-.7,0,.22,1.19-1,.9l-.46-.11a3,3,0,0,0-1.51.4c-.3.23-1.33-.28-1.77-.09a6.51,6.51,0,0,0-2.21,1.85l-1.17-.41-.35-.12a6,6,0,0,1-2.38,1L781,487l-.64-.06c-.67.06-3,.52-5.14,1l-1.77.84c-.33.16-.45.6-1,.17l-.63-.49a5.75,5.75,0,0,1-1.57,1.34h-.5l-1,0a15.76,15.76,0,0,0-1.88.95,19.51,19.51,0,0,1-2.58.57l-1.12.56-1,.5c-1.36.44-2.62.63-2.79.42s-1.27,0-1.65-.19-.88.93-1.29,1h-.64a2.41,2.41,0,0,0-1.66.5l-.66.31a5.87,5.87,0,0,1-2.2.5l-.4,0a15.6,15.6,0,0,0-2,1.42c-.68.56-3.49-.27-4-.23s-1.9.79-2.5.9a16.31,16.31,0,0,1-3.07.49c-.54-.08-1.43,1.18-2.07,1.25a8.26,8.26,0,0,1-2.74-.5c-.36-.18-1.39.95-1.94,1.18a1.49,1.49,0,0,1-1.45-.18c-.24-.24-1.7.29-2.2.53s-2,.6-2.23.25-1.77.34-2.18.54l-.07-.06c-1-.87-1.45,0-2.06.37l-.1.07a2,2,0,0,0-1,.35c-.34.22-1.37-.41-1.46-.59a.88.88,0,0,0-1.21.06c-.44.47-2.2,0-2.12-.11s-.24-.4-.9-.27a14.35,14.35,0,0,1-3.18-.48c-.44-.09-2.12,0-2.63,0s-3.73,0-6-.08-7.76-1.32-8-1.76-2.89-.77-3.92-1.13l-.48-.62-.61-.77a16.21,16.21,0,0,1-1.88-1.2,8.07,8.07,0,0,0-1.54-.78,17.07,17.07,0,0,1-2.3-2c-.43-.32-.43-1.94-.79-2.38a4.61,4.61,0,0,1-.78-2.36c.15-.34-1.08-.69-1.1-.85l.05-.11c.43-.86-.12-1.42-1-1.75L681,484a3.45,3.45,0,0,1,1.08-.9l.09-.56.06-.38c.45-.69.37-1-.18-.73a7.07,7.07,0,0,1-1.89.73,7.52,7.52,0,0,1,.62-1.77c.2-.49-.87-1.76-1.06-2s-.31-1-1-1.3l0-.15.2-1a17.63,17.63,0,0,1-1.4-3.35c-.26-.94-2-3.61-2.21-4.17l-.22-.49-.34-.77a23.29,23.29,0,0,1-2-5V462a5.28,5.28,0,0,0,0-2.09l-.84-2.28a19.1,19.1,0,0,0,.4-5.23l.1-.32.12-.42a12,12,0,0,0,.79-2.94l2.21-2.05.08-.07a1.64,1.64,0,0,1,.2-.9c.16-.32-.28-1.19.1-1.4s1.24-2.08,2.06-3.17l.47-1c.32-.7.47-1.42,1.22-1.85l1.16-.65c-.11-1.09.11-2,.51-2.1s1.41-.37,1.09-.5-1-.52-.7-.6.88-.33.84-.41a3.76,3.76,0,0,0-.88-.63c-.38-.21-2.31.24-3.08.48s-3.56,1.24-4.62,1.46-3.5,1.6-3.76,1.48l-.24-.12-2.46.69c-.56.27-1.11.56-1.69.79l-.39.16a1.92,1.92,0,0,0-1.13,1l-.69.08-.41,0c-.43.18-1.7.58-2.83.9s-4.34,2-5.1,2.24l-.71.21-.6.18a33.09,33.09,0,0,0-3.2,1.44c-1.12.56-5.05,2.29-6.17,2.7a32.39,32.39,0,0,0-4.78,2.16,11,11,0,0,1-2.62,1.18c-.54.19-2.53.82-3.21,1a10.42,10.42,0,0,0-2.46.9,6.24,6.24,0,0,1-2.59,1.7c-1.48.6-7,2.83-8.9,3.6L618.65,459a18.12,18.12,0,0,1-2.58,2.24l-1,.58c-1.05.67-2.65,1.82-3.55,2.56s-4.45,2-4.86,2.31a4.32,4.32,0,0,1-2.46.64l-.52-.09-1.07-.18a7.14,7.14,0,0,0-3.14.18c-.54.26-2-.47-2-.39a7.08,7.08,0,0,1-1.83.19l.22-.82c.07-.25.28-.47.38-.72.3-.75.89-1.45-.8-1.82-.71-.15-1.85-.84-1.68-1.9.1-.63-.36-.66-1-.83l-.49-.14a16.16,16.16,0,0,0-2.81-3.1l.79-1.51v0l-2.15-1.54-.12-1.32-.09-1.06a11.55,11.55,0,0,1-1.71-3.25,7.64,7.64,0,0,1,.56-3.18l-.65-.44a.46.46,0,0,1,0-.52l.38-.24c.48-.21.63-.66.33-1l.52-.39a1.49,1.49,0,0,0,.49-.95c.06-.32-.24-.73-.1-1a6.49,6.49,0,0,1,1.1-1.05l.77-.76c.85-.82,1.31-1.82,1-2.22s1.5-.86,1.85-1.19,1.82-.72,1.78-.9.64-.92,1.07-1.31,1.93-1.21,2.13-1.35a5.53,5.53,0,0,0,.66-1.1,11.9,11.9,0,0,1,1.62-1.29,21.62,21.62,0,0,1,3.74-1.38c.41-.17,1.3-1.29,1.75-1.57s1.47-1.16,1.55-1,.48.47.56-.15,2.29-1.86,3.23-2.61L612,424c.1,0,.42-.15.55-.28.41-.42.79-.86,1.16-1.31s.73-.21,1.26,0,1.5.16.54-.7a3.43,3.43,0,0,1,1-.82c.21-.1.83.26.94.17l1.54-1.39a16.55,16.55,0,0,0,4.5-1.71l.26-.22.11-.1a9.22,9.22,0,0,1,1.68.53l.22-.56.12-.3c-.4-.57-.35-1,.1-1a14.69,14.69,0,0,0,2.43-.27,7.25,7.25,0,0,0,2.52-2.08l.78-.39.4-.2a23.92,23.92,0,0,0,4.46-.54l.4-1.36a2.72,2.72,0,0,1,.7,0c.4,0,.92.22,1.16.08l.43-.25c-.08-.51.4-.82,1.06-.71l.54-.11a5.59,5.59,0,0,0,1.68-.78l.54-.32c.5-.46,1.1-.79,1.35-.72a3,3,0,0,0,1.58-.74l.49-.11.46-.11a5.72,5.72,0,0,0,1.83.25l.26-.15.45-.29c.43-.38.9-.83,1-1a1.16,1.16,0,0,1,1.22,0l.3.11,1,.35a11.76,11.76,0,0,1,3.71-1.27l.85-.46.51-.27a1.84,1.84,0,0,1,1.76-.38c.36.24,1.35-.76,1.87-.82a7.91,7.91,0,0,0,2.54-.5c.41-.31,1.74.55,2.07.58a16.73,16.73,0,0,0,2.75-.91l1,0c.69,0,1.55,0,2.2.06s.67,0,.73-.39l0-.16c.13-.17.57-.14,1,.07s1.72-.44,2.06-.45,3.07-.06,5.3-.12,8.2,1.09,8.54,1a3.76,3.76,0,0,1,1.87.43l.64-.34a4.49,4.49,0,0,1,1.46-.1c.92-.07,1.9.49,2.82-.22l.11-.08c.91.6,1.72.82,1.8.49s1.91-.39,2.62-.25a14.23,14.23,0,0,1,3.2,1.82,9.09,9.09,0,0,0,2.73.79,10,10,0,0,1,1.89,1.05c.86.54,2.45,2.6,2.25,2.87s.85,1.18,1.08,1.46,1.06,1.24,1.35,1.52a6.35,6.35,0,0,1,.85,2.15c.1.59.51,2.35.66,2.07s.52-.36.62.24a16.92,16.92,0,0,1,.62,3.26c-.1.66.8,2.89,1.23,3.95s1.74,4,2.23,4,2.27,2.18,2.86,2.34,0,1.5.32,1.72,1.06,1,.9,1.2a2.05,2.05,0,0,0,.11,1.3c.14.31.89,3.21,1.43,3.68h-1.47a3.62,3.62,0,0,0-.29,1,18.57,18.57,0,0,0,.24,3l-.87.78a3,3,0,0,0-.75,2.25v.62a5.83,5.83,0,0,0-1.77,1.53l-.26.63-.25.57a7.58,7.58,0,0,1-1,1.75,8.53,8.53,0,0,0-1.1,1.92,6,6,0,0,0-.52,2c.09.6-2,1.28-2.18,1.72s-1.33,2.19-1.72,2.93-2.2,3.65-2.87,4.88l-.7,1.08c-.7,1.09-1.55,2.11-2.24,3.21l-.18.28c.08.47,1.09.67,2.25.46a42.65,42.65,0,0,1,4.73,0l.19-.45.32-.73a1.68,1.68,0,0,0,1.42.32,12.94,12.94,0,0,1,2.67-.62c.91-.12,2.88-1,3-.42s2.08-.34,3-.57,3.42-1.68,3.95-1.79,2.05-.82,2.52-.82a7.8,7.8,0,0,0,2.06-.61c.3-.17,1.36.2,1.55.15s.86-.4,1.17-.55a7.32,7.32,0,0,1,2.08-.2,33.27,33.27,0,0,0,4.78-2.14l2-.19,1.31-.12a30.31,30.31,0,0,0,3.35-.76l.36-.19.89-.47a5.6,5.6,0,0,0,2.27-.53,2.25,2.25,0,0,1,1-.7c.29,0,1.28-.09,1.58-.13a6.61,6.61,0,0,0,2.16-1.63l1.05,1a1.07,1.07,0,0,0,.69-.27Z" transform="translate(-586.04 -401.98)"/></svg>