<svg id="Layer_1" data-name="Layer 1" xmlns="http://www.w3.org/2000/svg" viewBox="0 0 175.81 176.23"><defs><style>.cls-1{fill:#212130;}.cls-2{fill:#f37353;}</style></defs><path class="cls-1" d="M258.77,135.26a12.68,12.68,0,0,0-9.3-3.87H144.07a13.11,13.11,0,0,0-13.17,13.18V250a13.21,13.21,0,0,0,13.17,13.17h74.66l43.91-43.92V144.57A12.69,12.69,0,0,0,258.77,135.26Zm-9.3,76.94H211.7V250H144.07V144.57h105.4Z" transform="translate(-86.84 -86.91)"/><path class="cls-2" d="M205.24,100.28l3.11,17.5h13.29L218.1,97.84a13.45,13.45,0,0,0-5.43-8.64,12.13,12.13,0,0,0-9.86-2L98,105.81a13.94,13.94,0,0,0-8.76,5.43,11.9,11.9,0,0,0-2.1,9.87L106,225.94a12.87,12.87,0,0,0,4.21,7.53,13.75,13.75,0,0,0,7.76,3.33V218.4l-17.51-99.73Z" transform="translate(-86.84 -86.91)"/></svg>